<?xml version="1.0" standalone="no"?>
<!DOCTYPE svg PUBLIC "-//W3C//DTD SVG 20010904//EN"
 "http://www.w3.org/TR/2001/REC-SVG-20010904/DTD/svg10.dtd">
<svg version="1.0" xmlns="http://www.w3.org/2000/svg"
 width="1410.000000pt" height="360.000000pt" viewBox="0 0 1410.000000 360.000000"
 preserveAspectRatio="xMidYMid meet">

<g transform="translate(0.000000,360.000000) scale(0.100000,-0.100000)"
fill="#000000" stroke="none">
<path d="M0 1800 l0 -1800 1715 0 1715 0 35 54 c19 30 39 57 44 60 5 4 50 -3
99 -15 88 -20 90 -21 107 -60 l18 -39 2622 0 2622 0 7 31 c3 17 6 49 6 71 0
38 1 40 25 34 34 -9 127 -44 143 -55 12 -7 11 -14 -2 -39 -9 -17 -16 -33 -16
-37 0 -3 1116 -5 2480 -5 l2480 0 0 495 c0 272 -2 495 -5 495 -3 0 -14 -8 -25
-17 -20 -17 -20 -17 2 -40 31 -33 16 -38 -21 -7 l-32 27 28 17 c50 30 54 41
51 141 l-3 93 -78 -97 c-43 -53 -80 -104 -83 -112 -6 -15 -42 -30 -51 -21 -3
3 21 36 54 73 33 37 83 99 112 136 l51 68 0 1175 0 1174 -7050 0 -7050 0 0
-1800z m9755 1740 c86 -27 167 -69 158 -83 -3 -6 -1 -7 6 -3 12 8 81 -32 81
-46 0 -11 -2 -11 -71 22 -99 46 -181 63 -275 58 -71 -4 -94 -10 -166 -45 -87
-43 -98 -52 -161 -122 -21 -24 -40 -41 -41 -39 -42 67 -56 93 -74 141 -12 33
-22 60 -22 62 0 13 113 50 235 79 11 3 74 3 140 2 88 -3 138 -10 190 -26z
m1275 -212 l33 -11 -59 -30 c-98 -50 -128 -45 -98 18 14 31 21 35 54 35 20 0
52 -5 70 -12z m-5134 -20 c-34 -56 -50 -133 -51 -243 0 -125 12 -175 62 -250
58 -89 78 -115 86 -115 5 0 26 -14 48 -32 l40 -32 -25 -20 c-13 -12 -33 -28
-43 -36 -17 -14 -125 -62 -128 -57 -33 56 -44 81 -39 90 4 7 3 9 -1 4 -12 -10
-51 100 -66 184 -18 101 -7 257 25 349 34 97 77 180 93 180 11 0 11 -4 -1 -22z
m5280 -39 c118 -52 337 -275 549 -558 10 -14 38 -47 61 -74 23 -26 56 -71 72
-100 48 -85 103 -116 425 -238 32 -12 56 -23 55 -24 -2 -2 -24 1 -49 7 -43 10
-53 8 -125 -21 -124 -51 -134 -56 -134 -61 0 -3 20 -18 45 -33 25 -16 47 -33
51 -38 3 -5 -10 -28 -29 -52 -18 -23 -46 -63 -62 -89 -16 -26 -32 -45 -36 -42
-4 2 -23 -3 -43 -11 -57 -24 -58 -22 -56 58 3 82 -14 137 -43 137 -10 0 -30
12 -45 26 -35 33 -86 56 -109 47 -30 -10 -153 -117 -313 -274 -70 -68 -179
-144 -254 -176 -35 -16 -164 -17 -203 -2 -41 15 -152 102 -154 119 0 9 -2 11
-5 3 -9 -21 -73 27 -110 81 -35 52 -42 80 -24 91 6 3 10 14 10 23 -1 15 -2 15
-15 -2 -14 -18 -15 -17 -31 20 -32 73 -28 334 4 334 4 0 6 -34 4 -75 -11 -204
103 -421 265 -508 46 -24 64 -28 140 -28 94 0 112 5 208 67 74 47 217 202 262
284 11 19 23 52 27 73 4 20 11 37 15 37 5 0 11 23 15 50 7 50 27 68 40 35 8
-21 46 -19 47 3 0 10 3 12 6 4 2 -7 -5 -29 -17 -48 -11 -20 -19 -38 -18 -40 6
-5 168 78 168 87 0 12 -90 85 -101 82 -5 -2 -9 3 -10 10 -4 96 -28 177 -88
292 -46 89 -47 94 -32 119 20 34 4 54 -28 34 -20 -12 -25 -10 -53 22 -16 19
-49 56 -73 82 l-43 47 25 16 25 17 -23 21 c-52 49 -123 107 -131 107 -4 0 -8
-7 -8 -15 0 -24 -34 -36 -56 -20 -18 13 -18 14 9 20 37 10 34 19 -17 49 -78
46 -72 61 10 25z m-121 -39 c3 -5 1 -10 -4 -10 -6 0 -11 5 -11 10 0 6 2 10 4
10 3 0 8 -4 11 -10z m-195 -187 c0 -7 -22 -54 -48 -105 -26 -51 -60 -120 -75
-153 -39 -88 -33 -49 19 115 58 182 59 183 84 167 11 -6 20 -17 20 -24z
m-9502 -564 c97 -30 180 -67 239 -106 l53 -35 -60 -60 c-33 -33 -60 -66 -60
-73 0 -7 -5 -15 -11 -17 -14 -5 -37 -65 -56 -148 -19 -84 -12 -214 16 -294 11
-32 18 -62 16 -66 -3 -5 3 -11 12 -13 40 -10 -25 -6 -117 8 -102 16 -122 19
-215 30 -33 4 -69 11 -80 15 l-21 8 28 188 c15 104 34 241 42 304 9 63 21 155
27 204 l12 88 54 -6 c29 -3 84 -16 121 -27z m11113 -233 c46 -14 97 -30 114
-36 l29 -11 -44 -21 c-40 -17 -57 -19 -144 -13 -55 3 -103 8 -108 11 -13 8 36
93 53 94 9 0 54 -11 100 -24z m439 -150 c74 -32 164 -74 200 -93 238 -130 377
-219 535 -342 118 -91 308 -255 339 -292 46 -55 37 -131 -17 -137 -15 -2 -33
-12 -40 -23 -11 -18 -30 -27 -25 -11 5 14 -67 101 -92 111 -14 6 -45 15 -70
20 -25 5 -53 12 -62 16 -25 10 -23 -10 4 -48 30 -43 68 -76 96 -83 26 -7 28
-19 5 -34 -14 -8 -1 -9 51 -5 l68 7 -31 -45 c-17 -25 -31 -48 -31 -52 0 -11
-83 -85 -97 -85 -7 0 -21 -8 -31 -18 -11 -11 -39 -33 -64 -50 -24 -17 -86 -77
-138 -134 -166 -182 -284 -293 -347 -323 -32 -16 -74 -39 -94 -51 -20 -12 -72
-35 -115 -49 -76 -26 -84 -27 -229 -21 -207 8 -280 35 -492 177 -81 55 -215
187 -211 208 2 8 -16 33 -39 54 -38 35 -111 143 -102 151 2 2 14 8 25 14 20
10 25 6 64 -54 81 -126 224 -259 370 -344 147 -86 390 -156 461 -133 l34 11
-48 1 c-76 2 -240 53 -279 88 -9 8 -22 12 -29 7 -8 -5 -10 -3 -4 6 6 10 4 12
-9 7 -14 -5 -17 -3 -12 8 7 19 -35 48 -66 43 -18 -2 -22 1 -20 15 3 15 -1 17
-18 12 -16 -5 -30 2 -58 29 -20 20 -40 36 -44 36 -4 0 -36 28 -70 61 -35 34
-53 56 -40 50 12 -6 22 -16 22 -21 0 -5 10 -10 23 -12 14 -2 23 -11 25 -25 3
-21 37 -41 49 -29 4 3 -1 6 -10 6 -12 0 -17 8 -16 28 0 20 2 23 7 10 7 -16 10
-16 37 -2 34 17 61 44 61 59 -2 21 97 15 155 -9 26 -11 29 14 17 171 -10 146
1 352 22 378 4 6 10 28 13 50 10 91 31 195 38 195 9 0 137 -126 154 -151 52
-75 120 -285 160 -494 27 -138 50 -197 90 -235 21 -20 36 -24 80 -23 30 1 55
-3 55 -8 0 -5 -10 -9 -22 -9 -22 -1 -22 -1 -4 -11 15 -9 16 -13 5 -20 -10 -6
-11 -9 -1 -9 6 0 12 -10 12 -23 0 -78 165 52 254 200 4 8 -6 7 -31 -3 -39 -16
-62 -32 -30 -21 22 8 22 1 -4 -31 l-21 -27 6 25 c6 25 6 25 -6 2 -6 -13 -17
-21 -24 -18 -8 3 -17 -1 -21 -8 -10 -16 -43 -28 -43 -16 0 6 4 10 9 10 27 0
36 111 12 145 -4 6 -16 33 -26 60 -31 88 -200 427 -260 525 -32 52 -110 155
-172 230 -62 74 -113 138 -113 141 0 18 58 60 104 74 91 29 209 11 341 -50 85
-40 112 -51 134 -54 5 0 49 -30 97 -66 49 -36 93 -65 99 -65 16 1 -56 60 -182
151 -179 127 -290 192 -322 187 -9 -2 -29 5 -43 14 -41 27 -154 77 -204 90
-24 7 -44 16 -44 20 0 4 9 19 21 32 l21 24 56 -18 c31 -9 118 -43 192 -74z
m-10346 60 c55 -14 162 -38 236 -55 74 -17 191 -44 260 -61 69 -16 144 -32
168 -36 38 -6 43 -9 39 -28 -3 -11 -13 -56 -22 -98 -14 -63 -19 -75 -30 -65
-52 49 -159 121 -220 147 -90 39 -212 62 -310 60 -127 -3 -139 -4 -152 -13 -6
-4 -32 -10 -58 -14 l-47 -6 6 54 c15 117 18 139 23 139 3 0 51 -11 107 -24z
m9863 -42 c-3 -3 -12 -4 -19 -1 -8 3 -5 6 6 6 11 1 17 -2 13 -5z m103 -124 c0
-5 -4 -10 -10 -10 -5 0 -10 5 -10 10 0 6 5 10 10 10 6 0 10 -4 10 -10z m219
-9 c17 -11 8 -27 -19 -34 -25 -6 -36 9 -20 28 14 17 20 18 39 6z m366 -101 c3
-5 1 -10 -4 -10 -6 0 -11 5 -11 10 0 6 2 10 4 10 3 0 8 -4 11 -10z m45 -30 c8
-5 11 -10 5 -10 -5 0 -17 5 -25 10 -8 5 -10 10 -5 10 6 0 17 -5 25 -10z
m-1220 -77 c0 -12 -5 -34 -11 -50 -18 -48 -59 -216 -59 -245 0 -45 -17 -78
-41 -78 -21 0 -21 3 -15 63 7 68 61 341 71 357 10 16 54 -22 55 -47z m-7885
-312 c60 -21 111 -44 113 -51 3 -7 0 -10 -7 -6 -7 4 -9 1 -5 -8 3 -8 0 -21 -7
-29 -11 -11 -21 -11 -63 4 -28 10 -72 21 -98 24 -45 6 -48 8 -48 36 0 16 -4
29 -9 29 -5 0 -11 13 -13 29 -3 24 -2 27 11 20 9 -5 65 -27 126 -48z m7792
-223 c-2 -24 -4 -7 -4 37 0 44 2 63 4 43 2 -21 2 -57 0 -80z m-3109 -20 c6 -7
11 -16 11 -20 1 -5 4 -8 9 -9 10 -1 32 -20 32 -28 0 -9 -8 -17 -164 -169 -81
-80 -130 -121 -138 -116 -7 4 -9 3 -5 -1 4 -5 -25 -42 -65 -82 -77 -78 -89
-82 -159 -62 -30 10 -36 15 -30 28 20 36 51 147 51 178 0 23 5 35 18 39 36 11
128 46 145 55 10 5 23 7 30 3 7 -4 9 -4 5 1 -4 4 32 34 80 66 48 32 103 74
121 93 38 40 44 42 59 24z m3143 -118 c17 -61 18 -78 8 -97 -7 -13 -15 -23
-19 -23 -9 0 -47 99 -56 145 -5 29 -3 39 12 50 25 18 31 11 55 -75z m-5777
-96 c28 -6 28 -6 21 -62 -8 -68 -36 -140 -75 -197 -34 -50 -114 -123 -150
-137 -88 -36 -132 -49 -186 -54 l-62 -7 -47 87 -47 86 36 57 c64 104 128 161
224 202 87 36 183 45 286 25z m7986 -54 c0 -5 -2 -10 -4 -10 -3 0 -8 5 -11 10
-3 6 -1 10 4 10 6 0 11 -4 11 -10z m-850 -254 c0 -3 -4 -8 -10 -11 -5 -3 -10
-1 -10 4 0 6 5 11 10 11 6 0 10 -2 10 -4z m-12011 -143 l33 -37 -69 -64 c-37
-35 -139 -134 -226 -218 -105 -103 -165 -154 -179 -154 -17 0 -66 13 -95 25
-2 1 7 26 19 56 12 30 26 80 32 112 l11 58 65 23 c95 34 226 112 299 178 27
25 35 28 43 17 8 -11 9 -11 5 2 -5 15 9 39 23 39 4 0 21 -17 39 -37z m10002 0
c32 -19 49 -58 49 -116 0 -53 -37 -87 -95 -87 -98 0 -147 107 -82 181 34 41
82 49 128 22z"/>
<path d="M9508 3553 c17 -2 47 -2 65 0 17 2 3 4 -33 4 -36 0 -50 -2 -32 -4z"/>
<path d="M9768 3503 c6 -2 18 -2 25 0 6 3 1 5 -13 5 -14 0 -19 -2 -12 -5z"/>
<path d="M9510 3484 c-14 -8 -18 -14 -10 -14 8 1 24 7 34 15 24 19 10 18 -24
-1z"/>
<path d="M9850 3480 c8 -5 20 -10 25 -10 6 0 3 5 -5 10 -8 5 -19 10 -25 10 -5
0 -3 -5 5 -10z"/>
<path d="M9310 3349 c0 -5 5 -7 10 -4 6 3 10 8 10 11 0 2 -4 4 -10 4 -5 0 -10
-5 -10 -11z"/>
<path d="M5821 3134 c0 -11 3 -14 6 -6 3 7 2 16 -1 19 -3 4 -6 -2 -5 -13z"/>
<path d="M11955 2160 c-3 -6 1 -7 9 -4 18 7 21 14 7 14 -6 0 -13 -4 -16 -10z"/>
<path d="M1555 2360 c3 -5 10 -10 16 -10 5 0 9 5 9 10 0 6 -7 10 -16 10 -8 0
-12 -4 -9 -10z"/>
<path d="M1102 1780 c0 -14 2 -19 5 -12 2 6 2 18 0 25 -3 6 -5 1 -5 -13z"/>
<path d="M1095 1740 c4 -6 11 -8 16 -5 14 9 11 15 -7 15 -8 0 -12 -5 -9 -10z"/>
<path d="M13848 1163 c7 -3 16 -2 19 1 4 3 -2 6 -13 5 -11 0 -14 -3 -6 -6z"/>
<path d="M13240 796 c0 -9 5 -16 10 -16 6 0 10 4 10 9 0 6 -4 13 -10 16 -5 3
-10 -1 -10 -9z"/>
<path d="M12320 756 c0 -8 -11 -17 -24 -20 -24 -6 -24 -7 -10 -36 15 -29 34
-40 34 -20 0 6 -4 10 -10 10 -5 0 -10 5 -10 11 0 6 6 9 14 6 10 -4 14 3 14 29
0 19 -2 34 -4 34 -2 0 -4 -6 -4 -14z"/>
<path d="M12391 634 c0 -11 3 -14 6 -6 3 7 2 16 -1 19 -3 4 -6 -2 -5 -13z"/>
<path d="M2858 2023 c7 -3 16 -2 19 1 4 3 -2 6 -13 5 -11 0 -14 -3 -6 -6z"/>
<path d="M3030 2020 c8 -5 20 -10 25 -10 6 0 3 5 -5 10 -8 5 -19 10 -25 10 -5
0 -3 -5 5 -10z"/>
<path d="M2938 2013 c7 -3 16 -2 19 1 4 3 -2 6 -13 5 -11 0 -14 -3 -6 -6z"/>
<path d="M3955 1470 c3 -5 8 -10 11 -10 2 0 4 5 4 10 0 6 -5 10 -11 10 -5 0
-7 -4 -4 -10z"/>
<path d="M8705 1200 c-3 -6 1 -7 9 -4 18 7 21 14 7 14 -6 0 -13 -4 -16 -10z"/>
<path d="M8308 963 c7 -3 16 -2 19 1 4 3 -2 6 -13 5 -11 0 -14 -3 -6 -6z"/>
<path d="M8291 908 c0 -9 -4 -25 -7 -35 -5 -17 -5 -17 6 0 6 10 9 25 7 35 -4
15 -5 15 -6 0z"/>
<path d="M5978 973 c7 -3 16 -2 19 1 4 3 -2 6 -13 5 -11 0 -14 -3 -6 -6z"/>
<path d="M5725 900 c-3 -5 -1 -10 4 -10 6 0 11 5 11 10 0 6 -2 10 -4 10 -3 0
-8 -4 -11 -10z"/>
<path d="M6006 723 c-6 -14 -5 -15 5 -6 7 7 10 15 7 18 -3 3 -9 -2 -12 -12z"/>
<path d="M1196 493 c-6 -14 -5 -15 5 -6 7 7 10 15 7 18 -3 3 -9 -2 -12 -12z"/>
<path d="M1060 369 c0 -5 5 -7 10 -4 6 3 10 8 10 11 0 2 -4 4 -10 4 -5 0 -10
-5 -10 -11z"/>
<path d="M781 284 c0 -11 3 -14 6 -6 3 7 2 16 -1 19 -3 4 -6 -2 -5 -13z"/>
<path d="M11230 520 c0 -5 5 -10 11 -10 5 0 7 5 4 10 -3 6 -8 10 -11 10 -2 0
-4 -4 -4 -10z"/>
<path d="M3509 83 c-13 -17 -13 -17 6 -3 11 8 22 16 24 17 2 2 0 3 -6 3 -6 0
-17 -8 -24 -17z"/>
<path d="M3481 34 c0 -11 3 -14 6 -6 3 7 2 16 -1 19 -3 4 -6 -2 -5 -13z"/>
<path d="M9002 25 c0 -17 2 -22 5 -12 2 9 2 23 0 30 -3 6 -5 -1 -5 -18z"/>
</g>
</svg>
